<svg width="405" height="193" viewBox="0 0 405 193" fill="none" xmlns="http://www.w3.org/2000/svg">
<g filter="url(#filter0_d_9_45)">
<path d="M20.375 85.8125V139H8.8125V71.375H19.75L20.375 85.8125ZM17.625 102.625L12.8125 102.438C12.8542 97.8125 13.5417 93.5417 14.875 89.625C16.2083 85.6667 18.0833 82.2292 20.5 79.3125C22.9167 76.3958 25.7917 74.1458 29.125 72.5625C32.5 70.9375 36.2292 70.125 40.3125 70.125C43.6458 70.125 46.6458 70.5833 49.3125 71.5C51.9792 72.375 54.25 73.7917 56.125 75.75C58.0417 77.7083 59.5 80.25 60.5 83.375C61.5 86.4583 62 90.2292 62 94.6875V139H50.375V94.5625C50.375 91.0208 49.8542 88.1875 48.8125 86.0625C47.7708 83.8958 46.25 82.3333 44.25 81.375C42.25 80.375 39.7917 79.875 36.875 79.875C34 79.875 31.375 80.4792 29 81.6875C26.6667 82.8958 24.6458 84.5625 22.9375 86.6875C21.2708 88.8125 19.9583 91.25 19 94C18.0833 96.7083 17.625 99.5833 17.625 102.625ZM107.625 140.25C102.917 140.25 98.6458 139.458 94.8125 137.875C91.0208 136.25 87.75 133.979 85 131.062C82.2917 128.146 80.2083 124.688 78.75 120.688C77.2917 116.688 76.5625 112.312 76.5625 107.562V104.938C76.5625 99.4375 77.375 94.5417 79 90.25C80.625 85.9167 82.8333 82.25 85.625 79.25C88.4167 76.25 91.5833 73.9792 95.125 72.4375C98.6667 70.8958 102.333 70.125 106.125 70.125C110.958 70.125 115.125 70.9583 118.625 72.625C122.167 74.2917 125.062 76.625 127.312 79.625C129.562 82.5833 131.229 86.0833 132.312 90.125C133.396 94.125 133.938 98.5 133.938 103.25V108.438H83.4375V99H122.375V98.125C122.208 95.125 121.583 92.2083 120.5 89.375C119.458 86.5417 117.792 84.2083 115.5 82.375C113.208 80.5417 110.083 79.625 106.125 79.625C103.5 79.625 101.083 80.1875 98.875 81.3125C96.6667 82.3958 94.7708 84.0208 93.1875 86.1875C91.6042 88.3542 90.375 91 89.5 94.125C88.625 97.25 88.1875 100.854 88.1875 104.938V107.562C88.1875 110.771 88.625 113.792 89.5 116.625C90.4167 119.417 91.7292 121.875 93.4375 124C95.1875 126.125 97.2917 127.792 99.75 129C102.25 130.208 105.083 130.812 108.25 130.812C112.333 130.812 115.792 129.979 118.625 128.312C121.458 126.646 123.938 124.417 126.062 121.625L133.062 127.188C131.604 129.396 129.75 131.5 127.5 133.5C125.25 135.5 122.479 137.125 119.188 138.375C115.938 139.625 112.083 140.25 107.625 140.25Z" fill="white"/>
</g>
<path d="M273.188 123.375V71.375H284.812V139H273.75L273.188 123.375ZM275.375 109.125L280.188 109C280.188 113.5 279.708 117.667 278.75 121.5C277.833 125.292 276.333 128.583 274.25 131.375C272.167 134.167 269.438 136.354 266.062 137.938C262.688 139.479 258.583 140.25 253.75 140.25C250.458 140.25 247.438 139.771 244.688 138.812C241.979 137.854 239.646 136.375 237.688 134.375C235.729 132.375 234.208 129.771 233.125 126.562C232.083 123.354 231.562 119.5 231.562 115V71.375H243.125V115.125C243.125 118.167 243.458 120.688 244.125 122.688C244.833 124.646 245.771 126.208 246.938 127.375C248.146 128.5 249.479 129.292 250.938 129.75C252.438 130.208 253.979 130.438 255.562 130.438C260.479 130.438 264.375 129.5 267.25 127.625C270.125 125.708 272.188 123.146 273.438 119.938C274.729 116.688 275.375 113.083 275.375 109.125ZM341.812 121.062C341.812 119.396 341.438 117.854 340.688 116.438C339.979 114.979 338.5 113.667 336.25 112.5C334.042 111.292 330.708 110.25 326.25 109.375C322.5 108.583 319.104 107.646 316.062 106.562C313.062 105.479 310.5 104.167 308.375 102.625C306.292 101.083 304.688 99.2708 303.562 97.1875C302.438 95.1042 301.875 92.6667 301.875 89.875C301.875 87.2083 302.458 84.6875 303.625 82.3125C304.833 79.9375 306.521 77.8333 308.688 76C310.896 74.1667 313.542 72.7292 316.625 71.6875C319.708 70.6458 323.146 70.125 326.938 70.125C332.354 70.125 336.979 71.0833 340.812 73C344.646 74.9167 347.583 77.4792 349.625 80.6875C351.667 83.8542 352.688 87.375 352.688 91.25H341.125C341.125 89.375 340.562 87.5625 339.438 85.8125C338.354 84.0208 336.75 82.5417 334.625 81.375C332.542 80.2083 329.979 79.625 326.938 79.625C323.729 79.625 321.125 80.125 319.125 81.125C317.167 82.0833 315.729 83.3125 314.812 84.8125C313.938 86.3125 313.5 87.8958 313.5 89.5625C313.5 90.8125 313.708 91.9375 314.125 92.9375C314.583 93.8958 315.375 94.7917 316.5 95.625C317.625 96.4167 319.208 97.1667 321.25 97.875C323.292 98.5833 325.896 99.2917 329.062 100C334.604 101.25 339.167 102.75 342.75 104.5C346.333 106.25 349 108.396 350.75 110.938C352.5 113.479 353.375 116.562 353.375 120.188C353.375 123.146 352.75 125.854 351.5 128.312C350.292 130.771 348.521 132.896 346.188 134.688C343.896 136.438 341.146 137.812 337.938 138.812C334.771 139.771 331.208 140.25 327.25 140.25C321.292 140.25 316.25 139.188 312.125 137.062C308 134.938 304.875 132.188 302.75 128.812C300.625 125.438 299.562 121.875 299.562 118.125H311.188C311.354 121.292 312.271 123.812 313.938 125.688C315.604 127.521 317.646 128.833 320.062 129.625C322.479 130.375 324.875 130.75 327.25 130.75C330.417 130.75 333.062 130.333 335.188 129.5C337.354 128.667 339 127.521 340.125 126.062C341.25 124.604 341.812 122.938 341.812 121.062Z" fill="white"/>
<g filter="url(#filter1_i_9_45)">
<path d="M160.098 142.563L140.294 144.191L227.425 17L241.243 26.6752L160.098 142.563Z" fill="#B266FF"/>
</g>
<g filter="url(#filter2_d_9_45)">
<path d="M226.659 177.395C234.001 174.73 264 164 243.042 165.923C222.084 167.846 195.5 99.5 195.5 99.5L184 116.471C184 116.471 199.357 187.304 226.659 177.395Z" fill="#FF00CC"/>
</g>
<g filter="url(#filter3_d_9_45)">
<path d="M138.004 11.3499C130.662 14.0146 100.663 24.7447 121.621 22.8214C142.579 20.8982 169.163 89.2447 169.163 89.2447L180.663 72.2732C180.663 72.2732 165.306 1.44055 138.004 11.3499Z" fill="#FF00CC"/>
</g>
<defs>
<filter id="filter0_d_9_45" x="4.8125" y="70.125" width="133.125" height="78.125" filterUnits="userSpaceOnUse" color-interpolation-filters="sRGB">
<feFlood flood-opacity="0" result="BackgroundImageFix"/>
<feColorMatrix in="SourceAlpha" type="matrix" values="0 0 0 0 0 0 0 0 0 0 0 0 0 0 0 0 0 0 127 0" result="hardAlpha"/>
<feOffset dy="4"/>
<feGaussianBlur stdDeviation="2"/>
<feComposite in2="hardAlpha" operator="out"/>
<feColorMatrix type="matrix" values="0 0 0 0 0 0 0 0 0 0 0 0 0 0 0 0 0 0 0.25 0"/>
<feBlend mode="normal" in2="BackgroundImageFix" result="effect1_dropShadow_9_45"/>
<feBlend mode="normal" in="SourceGraphic" in2="effect1_dropShadow_9_45" result="shape"/>
</filter>
<filter id="filter1_i_9_45" x="140.294" y="17" width="100.949" height="131.191" filterUnits="userSpaceOnUse" color-interpolation-filters="sRGB">
<feFlood flood-opacity="0" result="BackgroundImageFix"/>
<feBlend mode="normal" in="SourceGraphic" in2="BackgroundImageFix" result="shape"/>
<feColorMatrix in="SourceAlpha" type="matrix" values="0 0 0 0 0 0 0 0 0 0 0 0 0 0 0 0 0 0 127 0" result="hardAlpha"/>
<feOffset dy="4"/>
<feGaussianBlur stdDeviation="2"/>
<feComposite in2="hardAlpha" operator="arithmetic" k2="-1" k3="1"/>
<feColorMatrix type="matrix" values="0 0 0 0 0.541176 0 0 0 0 0.168627 0 0 0 0 0.886275 0 0 0 1 0"/>
<feBlend mode="normal" in2="shape" result="effect1_innerShadow_9_45"/>
</filter>
<filter id="filter2_d_9_45" x="184" y="99.5" width="80.3564" height="92.8454" filterUnits="userSpaceOnUse" color-interpolation-filters="sRGB">
<feFlood flood-opacity="0" result="BackgroundImageFix"/>
<feColorMatrix in="SourceAlpha" type="matrix" values="0 0 0 0 0 0 0 0 0 0 0 0 0 0 0 0 0 0 127 0" result="hardAlpha"/>
<feOffset dx="10" dy="10"/>
<feGaussianBlur stdDeviation="2"/>
<feComposite in2="hardAlpha" operator="out"/>
<feColorMatrix type="matrix" values="0 0 0 0 0.541176 0 0 0 0 0.168627 0 0 0 0 0.886275 0 0 0 1 0"/>
<feBlend mode="normal" in2="BackgroundImageFix" result="effect1_dropShadow_9_45"/>
<feBlend mode="normal" in="SourceGraphic" in2="effect1_dropShadow_9_45" result="shape"/>
</filter>
<filter id="filter3_d_9_45" x="114.307" y="10.3993" width="75.3564" height="86.8454" filterUnits="userSpaceOnUse" color-interpolation-filters="sRGB">
<feFlood flood-opacity="0" result="BackgroundImageFix"/>
<feColorMatrix in="SourceAlpha" type="matrix" values="0 0 0 0 0 0 0 0 0 0 0 0 0 0 0 0 0 0 127 0" result="hardAlpha"/>
<feOffset dx="5" dy="4"/>
<feGaussianBlur stdDeviation="2"/>
<feComposite in2="hardAlpha" operator="out"/>
<feColorMatrix type="matrix" values="0 0 0 0 0.541176 0 0 0 0 0.168627 0 0 0 0 0.886275 0 0 0 1 0"/>
<feBlend mode="normal" in2="BackgroundImageFix" result="effect1_dropShadow_9_45"/>
<feBlend mode="normal" in="SourceGraphic" in2="effect1_dropShadow_9_45" result="shape"/>
</filter>
</defs>
</svg>
